<svg xmlns="http://www.w3.org/2000/svg" width="960" height="720" viewBox="0 0 960 720" role="img" aria-label="Music recommendation and data analytics illustration">
  <rect width="960" height="720" rx="42" fill="#F8FAFC"/>
  <circle cx="250" cy="220" r="86" fill="#DBEAFE"/>
  <circle cx="250" cy="220" r="58" fill="#FFFFFF" stroke="#2563EB" stroke-width="12"/>
  <circle cx="250" cy="220" r="16" fill="#2563EB"/>
  <path d="M344 238 C390 246 422 278 432 322" fill="none" stroke="#0F766E" stroke-width="14" stroke-linecap="round"/>
  <rect x="424" y="318" width="32" height="92" rx="16" fill="#0F766E"/>
  <path d="M156 238 C110 246 78 278 68 322" fill="none" stroke="#0F766E" stroke-width="14" stroke-linecap="round"/>
  <rect x="44" y="318" width="32" height="92" rx="16" fill="#0F766E"/>
  <rect x="570" y="130" width="68" height="360" rx="18" fill="#2563EB"/>
  <rect x="660" y="230" width="68" height="260" rx="18" fill="#0F766E"/>
  <rect x="750" y="175" width="68" height="315" rx="18" fill="#D97706"/>
  <rect x="840" y="285" width="68" height="205" rx="18" fill="#BE123C"/>
  <path d="M168 522 C248 472 326 575 406 520 S566 468 646 520 S806 574 886 520" fill="none" stroke="#111827" stroke-width="10" stroke-linecap="round"/>
  <circle cx="168" cy="522" r="14" fill="#2563EB"/>
  <circle cx="406" cy="520" r="14" fill="#0F766E"/>
  <circle cx="646" cy="520" r="14" fill="#D97706"/>
  <circle cx="886" cy="520" r="14" fill="#BE123C"/>
  <path d="M165 388 C214 348 286 348 335 388" fill="none" stroke="#111827" stroke-width="10" stroke-linecap="round"/>
  <path d="M298 175 L298 292" fill="none" stroke="#111827" stroke-width="12" stroke-linecap="round"/>
  <path d="M298 175 C350 168 378 150 398 128 L398 244" fill="none" stroke="#111827" stroke-width="12" stroke-linecap="round"/>
  <ellipse cx="282" cy="304" rx="32" ry="22" fill="#111827"/>
  <ellipse cx="382" cy="256" rx="32" ry="22" fill="#111827"/>
  <rect x="555" y="520" width="360" height="50" rx="25" fill="#FFFFFF" stroke="#CBD5E1" stroke-width="3"/>
  <circle cx="590" cy="545" r="10" fill="#2563EB"/>
  <circle cx="628" cy="545" r="10" fill="#0F766E"/>
  <circle cx="666" cy="545" r="10" fill="#D97706"/>
  <rect x="704" y="536" width="170" height="18" rx="9" fill="#CBD5E1"/>
</svg>
